<?xml version="1.0" encoding="utf-8"?>
<!-- Generator: Adobe Illustrator 16.0.4, SVG Export Plug-In . SVG Version: 6.00 Build 0)  -->
<!DOCTYPE svg PUBLIC "-//W3C//DTD SVG 1.1//EN" "http://www.w3.org/Graphics/SVG/1.1/DTD/svg11.dtd">
<svg version="1.1" id="Layer_1" xmlns="http://www.w3.org/2000/svg" xmlns:xlink="http://www.w3.org/1999/xlink" x="0px" y="0px"
	 width="182.828px" height="33.305px" viewBox="0 0 182.828 33.305" enable-background="new 0 0 182.828 33.305"
	 xml:space="preserve">
<g enable-background="new    ">
	<path fill="#FFFFFF" d="M0.953,15.207c0-1.331,0.24-2.646,0.722-3.947c0.481-1.301,1.183-2.463,2.104-3.487
		c0.922-1.023,2.048-1.854,3.379-2.488c1.331-0.635,2.847-0.952,4.547-0.952c2.007,0,3.743,0.44,5.208,1.321s2.555,2.027,3.272,3.44
		l-3.256,2.243c-0.287-0.615-0.635-1.132-1.045-1.552s-0.85-0.753-1.321-0.999c-0.472-0.245-0.963-0.425-1.475-0.537
		c-0.512-0.112-1.014-0.169-1.505-0.169c-1.065,0-1.992,0.215-2.781,0.645c-0.789,0.431-1.444,0.989-1.966,1.675
		c-0.522,0.687-0.917,1.465-1.183,2.335c-0.266,0.871-0.399,1.735-0.399,2.596c0,0.963,0.154,1.89,0.461,2.78
		c0.307,0.892,0.742,1.675,1.306,2.351c0.563,0.676,1.239,1.219,2.028,1.628c0.788,0.41,1.654,0.615,2.596,0.615
		c0.492,0,1.003-0.062,1.536-0.185s1.04-0.317,1.521-0.584c0.481-0.266,0.926-0.609,1.336-1.029c0.41-0.419,0.737-0.926,0.983-1.521
		l3.472,1.997c-0.348,0.819-0.845,1.541-1.49,2.166c-0.646,0.625-1.373,1.152-2.182,1.582s-1.674,0.758-2.596,0.983
		c-0.922,0.225-1.823,0.338-2.704,0.338c-1.557,0-2.98-0.327-4.271-0.983c-1.291-0.655-2.402-1.51-3.333-2.565
		c-0.932-1.055-1.659-2.253-2.181-3.595C1.213,17.968,0.953,16.6,0.953,15.207z"/>
	<path fill="#FFFFFF" d="M37.911,26.267h-4.117v-9.032c0-1.27-0.236-2.207-0.707-2.812c-0.472-0.604-1.137-0.906-1.997-0.906
		c-0.369,0-0.758,0.082-1.167,0.246c-0.41,0.164-0.799,0.395-1.167,0.691s-0.707,0.65-1.014,1.06
		c-0.308,0.41-0.533,0.86-0.676,1.352v9.401h-4.117V3.84h4.117v9.31c0.594-1.045,1.398-1.849,2.412-2.412
		c1.014-0.562,2.135-0.845,3.364-0.845c1.044,0,1.895,0.18,2.55,0.538s1.167,0.834,1.536,1.428c0.369,0.595,0.625,1.271,0.768,2.028
		c0.143,0.758,0.215,1.536,0.215,2.335V26.267z"/>
	<path fill="#FFFFFF" d="M45.899,26.575c-0.779,0-1.505-0.129-2.182-0.385c-0.676-0.256-1.259-0.614-1.751-1.075
		s-0.875-0.998-1.152-1.612c-0.276-0.615-0.415-1.291-0.415-2.028c0-0.757,0.169-1.459,0.507-2.104
		c0.338-0.645,0.809-1.192,1.413-1.644c0.604-0.45,1.326-0.804,2.166-1.06s1.761-0.384,2.765-0.384c0.717,0,1.418,0.062,2.104,0.184
		c0.686,0.123,1.295,0.298,1.828,0.522v-0.922c0-1.064-0.303-1.884-0.906-2.457c-0.604-0.573-1.501-0.86-2.688-0.86
		c-0.86,0-1.7,0.153-2.519,0.461c-0.819,0.307-1.659,0.758-2.52,1.352l-1.259-2.611c2.068-1.372,4.301-2.059,6.697-2.059
		c2.314,0,4.111,0.568,5.392,1.705c1.28,1.137,1.92,2.78,1.92,4.931v5.008c0,0.431,0.077,0.737,0.23,0.922
		c0.153,0.185,0.404,0.287,0.752,0.308v3.502c-0.696,0.143-1.301,0.215-1.812,0.215c-0.779,0-1.377-0.174-1.797-0.522
		c-0.42-0.348-0.681-0.809-0.783-1.382l-0.092-0.892c-0.717,0.942-1.587,1.659-2.611,2.151
		C48.162,26.329,47.066,26.575,45.899,26.575z M47.066,23.564c0.696,0,1.356-0.123,1.981-0.369c0.625-0.246,1.111-0.573,1.459-0.983
		c0.451-0.348,0.676-0.737,0.676-1.167v-1.844c-0.492-0.184-1.024-0.332-1.598-0.445c-0.574-0.112-1.126-0.169-1.659-0.169
		c-1.065,0-1.936,0.241-2.611,0.722c-0.676,0.481-1.014,1.091-1.014,1.828c0,0.696,0.266,1.275,0.799,1.736
		C45.632,23.334,46.288,23.564,47.066,23.564z"/>
	<path fill="#FFFFFF" d="M68.725,13.732c-1.25,0.021-2.366,0.262-3.349,0.723c-0.983,0.461-1.69,1.151-2.12,2.073v9.739H59.14
		V10.169h3.779v3.441c0.287-0.554,0.625-1.05,1.014-1.49c0.389-0.44,0.809-0.824,1.259-1.152c0.45-0.327,0.906-0.578,1.367-0.753
		c0.461-0.174,0.906-0.261,1.336-0.261c0.225,0,0.394,0,0.507,0c0.112,0,0.22,0.011,0.323,0.03V13.732z"/>
	<path fill="#FFFFFF" d="M71.029,7.927V3.84h4.117v4.087H71.029z M71.029,26.267V10.169h4.117v16.099H71.029z"/>
	<path fill="#FFFFFF" d="M88.51,25.438c-0.553,0.245-1.229,0.491-2.028,0.737c-0.799,0.245-1.639,0.368-2.519,0.368
		c-0.574,0-1.111-0.072-1.613-0.215c-0.502-0.144-0.942-0.374-1.321-0.691c-0.379-0.317-0.681-0.727-0.906-1.229
		c-0.226-0.502-0.338-1.111-0.338-1.828v-9.248h-2.12v-3.164h2.12V4.946h4.117v5.223h3.379v3.164h-3.379v7.865
		c0,0.574,0.148,0.979,0.445,1.214s0.661,0.354,1.091,0.354s0.85-0.072,1.26-0.216c0.409-0.143,0.737-0.266,0.983-0.368
		L88.51,25.438z"/>
	<path fill="#FFFFFF" d="M90.998,29.401c0.348,0.103,0.686,0.179,1.014,0.23c0.328,0.051,0.604,0.076,0.83,0.076
		c0.266,0,0.512-0.051,0.736-0.153c0.227-0.103,0.431-0.281,0.615-0.537c0.184-0.257,0.369-0.61,0.553-1.061
		c0.185-0.45,0.379-1.014,0.584-1.689L88.97,10.169h4.239l4.362,12.535l3.871-12.535h3.871l-6.759,19.294
		c-0.39,1.126-1.055,2.048-1.997,2.765c-0.941,0.717-2.109,1.075-3.502,1.075c-0.328,0-0.66-0.025-0.998-0.076
		c-0.338-0.052-0.692-0.139-1.061-0.262V29.401z"/>
	<path fill="#FFFFFF" d="M114.5,26.267V4.455h7.927c1.782,0,3.344,0.287,4.685,0.859c1.342,0.574,2.463,1.353,3.365,2.335
		c0.9,0.983,1.576,2.136,2.027,3.457c0.45,1.32,0.676,2.729,0.676,4.224c0,1.659-0.251,3.16-0.752,4.501
		c-0.503,1.342-1.225,2.488-2.166,3.441c-0.943,0.952-2.074,1.689-3.396,2.212s-2.801,0.783-4.439,0.783H114.5z M128.909,15.33
		c0-1.044-0.144-2.007-0.431-2.888c-0.287-0.88-0.706-1.639-1.259-2.273c-0.554-0.635-1.234-1.126-2.043-1.475
		c-0.81-0.348-1.726-0.522-2.75-0.522h-3.687V22.55h3.687c1.045,0,1.972-0.184,2.78-0.553c0.809-0.368,1.484-0.876,2.027-1.521
		c0.543-0.646,0.957-1.408,1.244-2.289C128.765,17.307,128.909,16.354,128.909,15.33z"/>
	<path fill="#FFFFFF" d="M141.935,4.455h3.748l8.295,21.812h-4.362l-2.028-5.438h-7.619l-1.996,5.438h-4.363L141.935,4.455z
		 M146.82,17.849l-3.011-8.571l-3.134,8.571H146.82z"/>
	<path fill="#FFFFFF" d="M164.885,26.421c-1.598,0-3.047-0.312-4.347-0.937c-1.302-0.625-2.418-1.454-3.35-2.488
		s-1.654-2.217-2.166-3.549c-0.512-1.331-0.768-2.693-0.768-4.086c0-1.454,0.271-2.847,0.814-4.179
		c0.542-1.331,1.289-2.509,2.242-3.533c0.952-1.023,2.084-1.838,3.395-2.442c1.311-0.604,2.734-0.906,4.271-0.906
		c1.577,0,3.016,0.323,4.317,0.968c1.3,0.646,2.411,1.49,3.332,2.535c0.922,1.044,1.639,2.232,2.151,3.563
		c0.512,1.332,0.769,2.684,0.769,4.056c0,1.454-0.268,2.842-0.799,4.163c-0.533,1.32-1.271,2.488-2.213,3.502
		s-2.068,1.823-3.379,2.427C167.845,26.119,166.421,26.421,164.885,26.421z M158.556,15.361c0,0.942,0.143,1.854,0.43,2.734
		s0.701,1.659,1.244,2.335s1.209,1.219,1.998,1.628c0.787,0.41,1.684,0.614,2.688,0.614c1.024,0,1.931-0.21,2.719-0.63
		c0.789-0.419,1.455-0.978,1.998-1.674c0.542-0.696,0.951-1.479,1.229-2.351c0.276-0.87,0.414-1.756,0.414-2.657
		c0-0.942-0.148-1.854-0.445-2.734s-0.717-1.659-1.26-2.335s-1.209-1.214-1.996-1.613c-0.789-0.399-1.675-0.599-2.658-0.599
		c-1.023,0-1.936,0.21-2.734,0.63s-1.465,0.973-1.996,1.659c-0.533,0.687-0.938,1.464-1.214,2.335
		C158.695,13.574,158.556,14.46,158.556,15.361z"/>
	<path fill="#FFFFFF" d="M177.697,26.267v-4.424h3.379v4.424H177.697z"/>
</g>
</svg>
