<?xml version="1.0" encoding="utf-8"?>
<!-- Generator: Adobe Illustrator 16.0.4, SVG Export Plug-In . SVG Version: 6.00 Build 0)  -->
<!DOCTYPE svg PUBLIC "-//W3C//DTD SVG 1.1//EN" "http://www.w3.org/Graphics/SVG/1.1/DTD/svg11.dtd">
<svg version="1.1"
	 id="Layer_1" xmlns:dc="http://purl.org/dc/elements/1.1/" xmlns:cc="http://creativecommons.org/ns#" xmlns:rdf="http://www.w3.org/1999/02/22-rdf-syntax-ns#" xmlns:svg="http://www.w3.org/2000/svg" xmlns:sodipodi="http://sodipodi.sourceforge.net/DTD/sodipodi-0.dtd" xmlns:inkscape="http://www.inkscape.org/namespaces/inkscape"
	 xmlns="http://www.w3.org/2000/svg" xmlns:xlink="http://www.w3.org/1999/xlink" x="0px" y="0px" width="473.602px"
	 height="537.475px" viewBox="403.199 51.263 473.602 537.475" enable-background="new 403.199 51.263 473.602 537.475"
	 xml:space="preserve">
<g transform="translate(0,-952.36218)">
	<path fill="#FFFFFF" fill-opacity="0.7" d="M806.4,1003.899c-21.9,1.647-42.898,7.553-60.601,17.8c-34.428,19.931-55.521,57.638-43.399,109.4l-56,37.4
		v-81.8c0.145-3.701-3.526-7.065-7.2-6.6c-3.144,0.395-5.724,3.434-5.601,6.6v177.8l-56-37.4
		c12.121-51.762-8.972-89.469-43.399-109.4c-17.702-10.247-38.7-16.152-60.601-17.8c-21.9-1.648-44.711,0.883-66,7.6
		c-2.577,0.848-4.45,3.487-4.399,6.2c0.549,44.643,18.664,89.778,49.2,117c29.715,26.491,72.182,34.571,117.6,6.8l60,40
		c1.043,0.748,2.316,1.173,3.6,1.199v57.602H524.8c-17.617,0-32,14.383-32,32c0,15.965,11.873,29.244,27.2,31.6l16,123.2
		c1.48,10.319,10.407,18,20.8,18h166.4c10.394,0,19.318-7.683,20.8-18l16-123.2c15.327-2.355,27.2-15.635,27.2-31.6
		c0-17.617-14.383-32-32-32H646.4v-153.601c1.283-0.026,2.557-0.451,3.6-1.2l60-40c45.418,27.771,87.885,19.691,117.6-6.8
		c30.535-27.222,48.651-72.357,49.2-117c0.052-2.713-1.822-5.352-4.399-6.2C849.021,1005.221,827.734,1002.745,806.4,1003.899z
		 M863.4,1022.699c-1.833,39.544-18.455,79.47-44.4,102.6c-25.192,22.459-57.902,29.896-97,8.2l43.2-28.8
		c2.379-1.503,3.536-4.694,2.673-7.373c-0.862-2.678-3.664-4.595-6.473-4.427c-1.217,0.065-2.412,0.487-3.4,1.2l-43.8,29.2
		c-8.766-44.438,8.592-73.576,38-90.6c15.704-9.091,34.96-14.474,55.2-16C826.353,1015.586,847.344,1018.303,863.4,1022.699z
		 M472.601,1112.699c20.24,1.526,39.496,6.909,55.2,16c29.407,17.024,46.766,46.162,38,90.6l-43.801-29.2
		c-1.255-0.916-2.853-1.352-4.399-1.2c-5.29,0.493-7.305,8.983-2.8,11.8l43.199,28.8c-39.098,21.695-71.807,14.259-97-8.2
		c-25.945-23.13-42.566-63.056-44.399-102.6C436.454,1113.554,454.036,1111.707,472.601,1112.699z M524.8,1349.099h230.4
		c10.747,0,19.2,8.452,19.2,19.2c0,10.614-8.243,18.994-18.801,19.199l-6.8-1l-0.199,1H531.4l-0.2-1l-6.4,1
		c-10.747,0-19.2-8.451-19.2-19.199S514.053,1349.099,524.8,1349.099L524.8,1349.099z M533,1400.3h214l-15.6,121
		c-0.506,3.518-4.462,7-8.2,7H556.8c-3.737,0-7.695-3.484-8.2-7L533,1400.3z"/>
</g>
</svg>
